<svg xmlns="http://www.w3.org/2000/svg" xmlns:xlink="http://www.w3.org/1999/xlink" aria-hidden="true" role="img" class="iconify iconify--logos" width="31.88" height="32" preserveAspectRatio="xMidYMid meet" viewBox="0 0 256 257"><defs><linearGradient id="IconifyId1813088fe1fbc01fb466" x1="-.828%" x2="57.636%" y1="7.652%" y2="78.411%"><stop offset="0%" stop-color="#41D1FF"></stop><stop offset="100%" stop-color="#BD34FE"></stop></linearGradient><linearGradient id="IconifyId1813088fe1fbc01fb467" x1="43.376%" x2="50.316%" y1="2.242%" y2="89.03%"><stop offset="0%" stop-color="#FFEA83"></stop><stop offset="8.333%" stop-color="#FFDD35"></stop><stop offset="100%" stop-color="#FFA800"></stop></linearGradient></defs><path fill="url(#IconifyId1813088fe1fbc01fb466)" d="M255.153 37.938L134.897 252.976c-2.483 4.44-8.862 4.466-11.382.048L.875 37.958c-2.746-4.814 1.371-10.646 6.827-9.67l120.385 21.517a6.537 6.537 0 0 0 2.322-.004l117.867-21.483c5.438-.991 9.574 4.796 6.877 9.62Z"></path><path fill="url(#IconifyId1813088fe1fbc01fb467)" d="M185.432.063L96.44 17.501a3.268 3.268 0 0 0-2.634 3.014l-5.474 92.456a3.268 3.268 0 0 0 3.997 3.378l24.777-5.718c2.318-.535 4.413 1.507 3.936 3.838l-7.361 36.047c-.495 2.426 1.782 4.5 4.151 3.78l15.304-4.649c2.372-.72 4.652 1.36 4.15 3.788l-11.698 56.621c-.732 3.542 2.983 5.473 5.476 3.988l81.8-49.045c2.151-1.29.98-4.985-1.588-4.668l-15.425 1.917a3.268 3.268 0 0 0-3.164 3.401l14.729 87.138a3.268 3.268 0 0 0 3.997 3.378l29.234-6.745c4.707-1.087 6.267 5.785 1.917 7.843l-42.612 20.06c-2.906 1.365-2.906 5.12 0 6.486l42.612 20.06c4.35 2.058 2.79 8.93-1.917 7.843l-29.234-6.745a3.268 3.268 0 0 0-3.997 3.378l-14.729 87.138a3.268 3.268 0 0 0 3.164 3.401l15.425 1.917c2.567.317 3.739-3.378 1.588-4.668l-81.8-49.045c-2.493-1.485-6.208.454-5.476 3.988l11.698 56.621c.502 2.428-1.778 4.508-4.15 3.788l-15.304-4.649c-2.369-.72-4.646 1.354-4.151 3.78l7.361 36.047c.477 2.331-1.618 4.373-3.936 3.838l-24.777-5.718c-2.318-.535-4.413 1.507-3.936 3.838l7.361 36.047c.495 2.426-1.782 4.5-4.151 3.78l-15.304-4.649c-2.372-.72-4.652 1.36-4.15 3.788l11.698 56.621c.732 3.542-2.983 5.473-5.476 3.988L.874 37.958c-2.746-4.814 1.371-10.646 6.827-9.67l120.385 21.517a6.537 6.537 0 0 0 2.322-.004L185.432.063Z"></path></svg>
